<?xml version="1.0" encoding="UTF-8" standalone="no"?>
<svg
   xmlns:dc="http://purl.org/dc/elements/1.1/"
   xmlns:cc="http://creativecommons.org/ns#"
   xmlns:rdf="http://www.w3.org/1999/02/22-rdf-syntax-ns#"
   xmlns:svg="http://www.w3.org/2000/svg"
   xmlns="http://www.w3.org/2000/svg"
   version="1.1"
   width="1360"
   height="772"
   id="splash">
  <defs
     id="defs3861" />
  <metadata
     id="metadata3864">
    <rdf:RDF>
      <cc:Work
         rdf:about="">
        <dc:format>image/svg+xml</dc:format>
        <dc:type
           rdf:resource="http://purl.org/dc/dcmitype/StillImage" />
        <dc:title></dc:title>
      </cc:Work>
    </rdf:RDF>
  </metadata>
  <g
     id="layer">
    <rect id="layer-bg" x="0" y="0" width="100%" height="100%" fill="white"/>
    <path
       d="m 1539.1996,374.16687 a 401.90982,156.71284 0 1 1 -803.81963,0 401.90982,156.71284 0 1 1 803.81963,0 z"
       class="orbit"
       id="mercury-orbit"
       style="fill:none;stroke:#000000;stroke-width:4;stroke-linecap:round;stroke-linejoin:round;stroke-miterlimit:4;stroke-opacity:1;stroke-dasharray:none" />
    <path
       d="m 1315.6624,314.88068 a 172.00633,180.39261 0 0 1 -344.01267,0 172.00633,180.39261 0 1 1 344.01267,0 z"
       id="sun"
       class="body"
       style="fill:white;stroke:#000000;stroke-width:4;stroke-linecap:round;stroke-linejoin:round;stroke-miterlimit:4;stroke-opacity:1;stroke-dasharray:none" />
    <path
       d="m 770.44994,332.55835 a 20.506096,19.79899 0 1 1 -41.01219,0 20.506096,19.79899 0 1 1 41.01219,0 z"
       id="mercury"
       class="body"
       style="fill:white;stroke:#000000;stroke-width:4;stroke-linecap:round;stroke-linejoin:round;stroke-miterlimit:4;stroke-opacity:1;stroke-dasharray:none" />
        <path
       d="m 1775.0059,382.25702 a 610.60071,292.48529 0 1 1 -1221.20146,0 610.60071,292.48529 0 1 1 1221.20146,0 z"
       class="orbit"
       id="venus-orbit"
       style="fill:none;stroke:#000000;stroke-width:4;stroke-linecap:round;stroke-linejoin:round;stroke-miterlimit:4;stroke-opacity:1;stroke-dasharray:none" />
        <path
       d="m 690.60068,222.44548 a 30.90695,28.645466 0 1 1 -61.8139,0 30.90695,28.645466 0 1 1 61.8139,0 z"
       id="venus"
       class="body"
       style="fill:white;stroke:#000000;stroke-width:4;stroke-linecap:round;stroke-linejoin:round;stroke-miterlimit:4;stroke-opacity:1;stroke-dasharray:none" />
    <path
       d="m 2027.4615,392.29013 a 805.95184,385.91873 0 1 1 -1611.9037,0 805.95184,385.91873 0 1 1 1611.9037,0 z"
       class="orbit"
       id="earth-orbit"
       style="fill:none;stroke:#000000;stroke-width:4;stroke-linecap:round;stroke-linejoin:round;stroke-miterlimit:4;stroke-opacity:1;stroke-dasharray:none" />
    <path
       d="m 482.94463,368.68811 a 56.537102,54.27562 0 1 1 -113.0742,0 56.537102,54.27562 0 1 1 113.0742,0 z"
       id="earth"
       class="body"
       style="fill:white;stroke:#000000;stroke-width:4;stroke-linecap:round;stroke-linejoin:round;stroke-miterlimit:4;stroke-opacity:1;stroke-dasharray:none" />
    <path
       d="m 2474.8057,477.23935 a 1182.0023,604.57007 0 1 1 -2364.004675,0 1182.0023,604.57007 0 1 1 2364.004675,0 z"
       class="orbit"
       id="mars-orbit"
       style="fill:none;stroke:#000000;stroke-width:4;stroke-linecap:round;stroke-linejoin:round;stroke-miterlimit:4;stroke-opacity:1;stroke-dasharray:none" />
        <path
       d="m 195.99529,382.25702 a 67.844521,69.35218 0 1 1 -135.689038,0 67.844521,69.35218 0 1 1 135.689038,0 z"
       id="mars"
       class="body"
       style="fill:white;stroke:#000000;stroke-width:4;stroke-linecap:round;stroke-linejoin:round;stroke-miterlimit:4;stroke-opacity:1;stroke-dasharray:none" />
    <path
       d="m 385.13029,333.7101 c 1.17398,1.29615 4.35263,1.78343 4.70684,2.49185 0.33225,0.6645 -0.33224,1.82737 0,2.49186 1.30045,2.60089 4.25045,6.18855 6.09121,8.02932 1.64693,1.64693 6.80124,-0.19873 8.85993,0.83062 2.17841,1.0892 3.57465,2.76049 6.09121,3.59934 3.20052,1.06684 7.45669,0.53487 9.69055,2.76873 3.9831,3.9831 -9.84078,4.55662 -6.64495,7.75245 1.93036,1.93036 3.54082,4.64831 5.26059,6.36807 2.52325,2.52325 4.72545,-0.79339 7.1987,4.1531 1.47319,2.94638 2.39844,15.96522 3.87622,17.443 0.78538,0.78538 2.22813,-1.12065 2.49185,-1.38437 0.96622,-0.96621 3.24279,-1.30467 4.1531,-2.21498 1.55021,-1.55021 2.0771,-4.01522 3.59935,-5.53746 0.98397,-0.98398 1.1823,-6.71976 2.49185,-8.02932 1.41387,-1.41386 2.07634,-5.12194 3.87623,-6.92182 1.94201,-1.94202 4.72655,-1.68095 6.36807,-3.32248 1.18767,-1.18766 0.72751,-3.49623 1.93811,-4.70684 1.81905,-1.81905 3.46007,-3.73693 4.98372,-5.26058 3.29392,-3.29393 10.58815,1.04051 14.12052,-2.49186 0.60921,-0.60921 1.05203,-2.15952 1.66124,-2.76873 1.50389,-1.50389 -2.22907,-7.78061 -2.76873,-8.85994 -6.77636,-13.55272 -17.44438,-9.9688 -27.41043,-19.93485 -1.66499,-1.66499 -25.96672,-3.93556 -26.30293,-3.59935 -0.5076,0.5076 -1.98425,0.0462 -2.49186,0.55375 -4.39394,4.39394 -13.26711,3.44952 -19.10423,6.36808 -1.20674,0.60336 -6.64495,2.73092 -6.64495,4.15309 0,2.08811 -7.59558,5.02057 -6.09121,8.02932 z"
       id="eurasia"
       class="landmass"
       style="fill:none;stroke:#000000;stroke-width:2.5;stroke-linecap:butt;stroke-linejoin:miter;stroke-miterlimit:4;stroke-opacity:1;stroke-dasharray:none" />
    <path
       d="m 382.91531,371.08795 c 7.3254,-0.33148 13.14428,-0.62656 18.82736,2.21498 5.27377,2.63689 11.78086,-5.86291 15.50489,-0.27687 1.97898,2.96847 0.56798,6.87911 -0.55375,10.2443 -1.16409,3.49229 1.38235,8.58709 -0.27687,11.90553 -1.30947,2.61894 -3.59935,10.89506 -3.59935,13.84365 0,1.03169 -2.10176,2.9828 -2.49186,4.1531 -0.19297,0.5789 0.16829,2.49185 -0.55374,2.49185 -8.51388,0 -4.06964,-14.31393 -7.1987,-17.44299 -2.24074,-2.24075 -3.92262,-6.13761 -5.81433,-8.02932 -2.19997,-2.19996 -4.50578,-5.3364 -6.92183,-7.75244 -0.66529,-0.6653 -15.74687,-11.35179 -6.92182,-11.35179 z"
       id="africa"
       class="landmass"
       style="fill:none;stroke:#000000;stroke-width:2.5;stroke-linecap:butt;stroke-linejoin:miter;stroke-miterlimit:4;stroke-opacity:1;stroke-dasharray:none" />
    <path
       d="m 446.31922,384.65472 c -2.22446,0.59282 -7.46001,6.38365 -5.26059,8.58306 0.39641,0.39641 2.19829,-0.14261 2.76873,0 4.90397,1.226 8.8108,-3.09474 4.98372,-6.92182 -0.88205,-0.88205 -1.19615,-0.0416 -2.49186,-1.66124 z"
       id="srilanka"
       class="landmass"
       style="fill:none;stroke:#000000;stroke-width:2.5;stroke-linecap:butt;stroke-linejoin:miter;stroke-miterlimit:4;stroke-opacity:1;stroke-dasharray:none" />
  </g>
</svg>
